<?xml version="1.0" encoding="UTF-8" standalone="no"?>
<svg
   xmlns:dc="http://purl.org/dc/elements/1.1/"
   xmlns:cc="http://creativecommons.org/ns#"
   xmlns:rdf="http://www.w3.org/1999/02/22-rdf-syntax-ns#"
   xmlns:svg="http://www.w3.org/2000/svg"
   xmlns="http://www.w3.org/2000/svg"
   id="svg14"
   version="1.1"
   width="48"
   height="48">
  <metadata
     id="metadata20">
    <rdf:RDF>
      <cc:Work
         rdf:about="">
        <dc:format>image/svg+xml</dc:format>
        <dc:type
           rdf:resource="http://purl.org/dc/dcmitype/StillImage" />
        <dc:title></dc:title>
      </cc:Work>
    </rdf:RDF>
  </metadata>
  <defs
     id="defs18" />
  <path
     id="circle4"
     d="M 24.001953 4.4960938 A 20 20 0 0 0 4.0019531 24.496094 A 20 20 0 0 0 24.001953 44.496094 A 20 20 0 0 0 44.001953 24.496094 A 20 20 0 0 0 24.001953 4.4960938 z M 23.001953 8.4960938 C 23.790851 8.5030368 24.578156 8.5683202 25.357422 8.6914062 C 24.25288 8.9712843 23.001953 9.6563843 23.001953 11.394531 C 23.001953 14.495771 27.001953 14.496094 27.001953 14.496094 C 27.001953 14.496094 29.001953 14.496094 29.001953 16.496094 C 29.001953 18.496094 27.001953 18.496094 27.001953 18.496094 L 19.001953 18.496094 C 19.001953 18.496094 15.001953 18.435183 15.001953 21.464844 C 15.001953 24.494494 19.001953 24.496094 19.001953 24.496094 L 25.001953 24.496094 C 25.001953 24.496094 29.001953 24.591331 29.001953 27.542969 C 29.001953 30.494593 25.001953 30.496094 25.001953 30.496094 L 21.001953 30.496094 C 21.001953 30.496094 19.001953 30.496094 19.001953 32.496094 C 19.001953 34.496094 21.001953 34.496094 21.001953 34.496094 L 23.001953 34.496094 C 23.001953 34.496094 25.001953 34.496094 25.001953 35.585938 C 25.001953 36.496094 23.001953 36.496094 23.001953 36.496094 L 19.001953 36.496094 C 19.001953 36.496094 17.001953 36.495286 17.001953 37.628906 C 17.001953 38.495286 19.001953 38.496094 19.001953 38.496094 L 23.001953 38.496094 C 23.001953 38.496094 25.001953 38.716587 25.001953 39.605469 C 25.001953 40.494393 23.001953 40.496094 23.001953 40.496094 C 14.165397 40.496094 7.0019531 33.33265 7.0019531 24.496094 C 7.0019531 15.659538 14.165397 8.4960938 23.001953 8.4960938 z "
     style="fill:#cccccc;stroke-width:2" />
</svg>
