<?xml version="1.0" encoding="UTF-8" standalone="no"?>
<svg
   xmlns:dc="http://purl.org/dc/elements/1.1/"
   xmlns:cc="http://creativecommons.org/ns#"
   xmlns:rdf="http://www.w3.org/1999/02/22-rdf-syntax-ns#"
   xmlns:svg="http://www.w3.org/2000/svg"
   xmlns="http://www.w3.org/2000/svg"
   id="svg12"
   version="1.1"
   height="48"
   width="48">
  <metadata
     id="metadata18">
    <rdf:RDF>
      <cc:Work
         rdf:about="">
        <dc:format>image/svg+xml</dc:format>
        <dc:type
           rdf:resource="http://purl.org/dc/dcmitype/StillImage" />
        <dc:title></dc:title>
      </cc:Work>
    </rdf:RDF>
  </metadata>
  <defs
     id="defs16" />
  <path
     id="path8"
     d="m32.104 30.851c-6.4761 3.3077-13.141 6.4118-20.217 8.0655-2.2808-0.01147-1.1555-3.0793-0.78709-4.4696 1.7693-5.9055 4.5126-11.434 7.1216-16.978 1.033-1.7516 1.7656-4.1657 3.8484-4.8396 2.023-0.23224 3.3522 1.789 4.4001 3.2637 4.2847 6.7798 8.3311 13.737 11.88 20.957 0.898 1.882 1.779 3.772 2.65 5.668-2.591-10.925-6.078-21.762-11.699-31.459-1.26-1.915-2.407-3.9931-4.108-5.5337-1.657-1.3146-3.694 0.1007-4.919 1.3733-3.848 3.9864-6.191 9.1884-8.488 14.211-2.6778 5.945-4.435 12.282-5.7249 18.682-0.4523 2.156 1.6938 3.721 3.6011 3.052 5.2828-1.135 10.247-3.516 14.919-6.249 2.6926-1.6335 5.2822-3.4884 7.5223-5.7438z"
     style="fill:#cccccc" />
</svg>
