<?xml version="1.0" encoding="UTF-8" standalone="no"?>
<svg
   xmlns:dc="http://purl.org/dc/elements/1.1/"
   xmlns:cc="http://creativecommons.org/ns#"
   xmlns:rdf="http://www.w3.org/1999/02/22-rdf-syntax-ns#"
   xmlns:svg="http://www.w3.org/2000/svg"
   xmlns="http://www.w3.org/2000/svg"
   id="svg46"
   version="1"
   height="48"
   width="48">
  <metadata
     id="metadata52">
    <rdf:RDF>
      <cc:Work
         rdf:about="">
        <dc:format>image/svg+xml</dc:format>
        <dc:type
           rdf:resource="http://purl.org/dc/dcmitype/StillImage" />
        <dc:title></dc:title>
      </cc:Work>
    </rdf:RDF>
  </metadata>
  <defs
     id="defs50" />
  <path
     id="path4"
     d="M 24 4 C 12.92 4 4 12.92 4 24 C 4 35.08 12.92 44 24 44 C 35.08 44 44 35.08 44 24 C 44 12.92 35.08 4 24 4 z M 14 13 L 16 13 C 17.108 13 18 13.892 18 15 L 18 17 C 18 18.108 17.108 19 16 19 L 14 19 C 12.892 19 12 18.108 12 17 L 12 15 C 12 13.892 12.892 13 14 13 z M 23 13 L 25 13 C 26.108 13 27 13.892 27 15 L 27 17 C 27 18.108 26.108 19 25 19 L 23 19 C 21.892 19 21 18.108 21 17 L 21 15 C 21 13.892 21.892 13 23 13 z M 32 13 L 34 13 C 35.108 13 36 13.892 36 15 L 36 17 C 36 18.108 35.108 19 34 19 L 32 19 C 30.892 19 30 18.108 30 17 L 30 15 C 30 13.892 30.892 13 32 13 z M 14 21 L 16 21 C 17.108 21 18 21.892 18 23 L 18 25 C 18 26.108 17.108 27 16 27 L 14 27 C 12.892 27 12 26.108 12 25 L 12 23 C 12 21.892 12.892 21 14 21 z M 23 21 L 25 21 C 26.108 21 27 21.892 27 23 L 27 25 C 27 26.108 26.108 27 25 27 L 23 27 C 21.892 27 21 26.108 21 25 L 21 23 C 21 21.892 21.892 21 23 21 z M 32 21 L 34 21 C 35.108 21 36 21.892 36 23 L 36 25 C 36 26.108 35.108 27 34 27 L 32 27 C 30.892 27 30 26.108 30 25 L 30 23 C 30 21.892 30.892 21 32 21 z M 14 29 L 16 29 C 17.108 29 18 29.892 18 31 L 18 33 C 18 34.108 17.108 35 16 35 L 14 35 C 12.892 35 12 34.108 12 33 L 12 31 C 12 29.892 12.892 29 14 29 z M 23 29 L 25 29 C 26.108 29 27 29.892 27 31 L 27 33 C 27 34.108 26.108 35 25 35 L 23 35 C 21.892 35 21 34.108 21 33 L 21 31 C 21 29.892 21.892 29 23 29 z M 32 29 L 34 29 C 35.108 29 36 29.892 36 31 L 36 33 C 36 34.108 35.108 35 34 35 L 32 35 C 30.892 35 30 34.108 30 33 L 30 31 C 30 29.892 30.892 29 32 29 z "
     style="fill:#cccccc" />
</svg>
