<?xml version="1.0" encoding="UTF-8" standalone="no"?>
<svg
   xmlns:dc="http://purl.org/dc/elements/1.1/"
   xmlns:cc="http://creativecommons.org/ns#"
   xmlns:rdf="http://www.w3.org/1999/02/22-rdf-syntax-ns#"
   xmlns:svg="http://www.w3.org/2000/svg"
   xmlns="http://www.w3.org/2000/svg"
   id="svg16"
   version="1.1"
   height="48"
   width="48">
  <metadata
     id="metadata22">
    <rdf:RDF>
      <cc:Work
         rdf:about="">
        <dc:format>image/svg+xml</dc:format>
        <dc:type
           rdf:resource="http://purl.org/dc/dcmitype/StillImage" />
        <dc:title></dc:title>
      </cc:Work>
    </rdf:RDF>
  </metadata>
  <defs
     id="defs20" />
  <path
     id="circle4"
     d="M 24 4 A 20 20 0 0 0 4.9257812 18 L 16 18 L 18 13 L 20 18 L 28 18 L 30 13 L 32 18 L 43.054688 18 A 20 20 0 0 0 24 4 z M 43.054688 18 A 20 20 0 0 1 43.544922 19.865234 A 20 20 0 0 0 43.054688 18 z M 4.9257812 18 A 20 20 0 0 0 4.515625 19.564453 A 20 20 0 0 1 4.9257812 18 z M 4.4160156 19.958984 A 20 20 0 0 0 4.1894531 21.414062 A 20 20 0 0 1 4.4160156 19.958984 z M 43.599609 20.109375 A 20 20 0 0 1 43.830078 21.597656 A 20 20 0 0 0 43.599609 20.109375 z M 4.109375 21.935547 A 20 20 0 0 0 4.0449219 23.109375 A 20 20 0 0 1 4.109375 21.935547 z M 43.904297 22.208984 A 20 20 0 0 1 44 24 A 20 20 0 0 0 43.904297 22.208984 z M 19 23 L 19 27 L 21 27 L 21 23 L 19 23 z M 27 23 L 27 27 L 29 27 L 29 23 L 27 23 z M 4 24 A 20 20 0 0 0 4.0957031 25.791016 A 20 20 0 0 1 4 24 z M 43.955078 24.890625 A 20 20 0 0 1 43.890625 26.064453 A 20 20 0 0 0 43.955078 24.890625 z M 4.1699219 26.402344 A 20 20 0 0 0 4.4003906 27.890625 A 20 20 0 0 1 4.1699219 26.402344 z M 43.810547 26.585938 A 20 20 0 0 1 43.583984 28.041016 A 20 20 0 0 0 43.810547 26.585938 z M 4.4550781 28.134766 A 20 20 0 0 0 4.9453125 30 A 20 20 0 0 1 4.4550781 28.134766 z M 4.9453125 30 A 20 20 0 0 0 24 44 A 20 20 0 0 0 43.074219 30 L 27 30 L 24 34 L 21 30 L 4.9453125 30 z M 43.074219 30 A 20 20 0 0 0 43.484375 28.435547 A 20 20 0 0 1 43.074219 30 z "
     style="fill:#cccccc" />
</svg>
