<?xml version="1.0" encoding="UTF-8" standalone="no"?>
<svg
   xmlns:dc="http://purl.org/dc/elements/1.1/"
   xmlns:cc="http://creativecommons.org/ns#"
   xmlns:rdf="http://www.w3.org/1999/02/22-rdf-syntax-ns#"
   xmlns:svg="http://www.w3.org/2000/svg"
   xmlns="http://www.w3.org/2000/svg"
   id="svg12"
   version="1"
   height="48"
   width="48">
  <metadata
     id="metadata18">
    <rdf:RDF>
      <cc:Work
         rdf:about="">
        <dc:format>image/svg+xml</dc:format>
        <dc:type
           rdf:resource="http://purl.org/dc/dcmitype/StillImage" />
        <dc:title></dc:title>
      </cc:Work>
    </rdf:RDF>
  </metadata>
  <defs
     id="defs16" />
  <path
     style="fill:#cccccc"
     id="rect2"
     d="M 24 4 C 12.92 4 4 12.92 4 24 C 4 35.08 12.92 44 24 44 C 35.08 44 44 35.08 44 24 C 44 12.92 35.08 4 24 4 z M 16.066406 15 L 19.648438 15 C 16.303338 16.6139 14 20.0239 14 24 C 14 27.714 16.01 30.935156 19 32.660156 L 19 31.361328 C 18.71568 31.061408 18.510223 30.666085 18.470703 30.265625 C 18.413193 29.682815 18.612721 29.202227 19.087891 28.773438 L 19.376953 28.513672 L 19.193359 27.580078 C 18.962059 26.411778 18.521426 25.670153 17.759766 25.164062 C 17.071176 24.706492 17 24.578673 17 23.783203 C 17 22.583203 17.84175 20.85575 19.46875 18.71875 C 20.23085 17.71795 21.842413 16.026816 22.470703 15.566406 C 22.941673 15.221266 23.379505 15.031326 23.828125 15.003906 C 24.575825 14.958206 25.349881 15.363236 26.337891 16.253906 C 28.077191 17.821906 30.433422 21.235291 30.882812 22.837891 C 31.046713 23.422391 31.038217 24.437775 30.867188 24.640625 C 30.790778 24.731275 30.467417 24.984991 30.148438 25.207031 C 29.441698 25.698931 28.963442 26.569263 28.763672 27.726562 L 28.628906 28.503906 L 29.023438 28.927734 C 29.729518 29.688734 29.69098 30.696281 29 31.363281 L 29 32.660156 C 31.9902 30.935156 34 27.7137 34 24 C 34 20.024 31.696562 16.614 28.351562 15 L 31.933594 15 C 34.424594 17.196 36 20.403 36 24 C 36 28.859 33.135 33.01625 29 34.90625 L 29 35 L 28.806641 35 C 28.228641 35.252 27.621 35.445469 27 35.605469 L 27 37.65625 A 14 14 0 0 0 38 24 A 14 14 0 0 0 37.404297 20 L 39.470703 20 A 16 16 0 0 1 40 24 A 16 16 0 0 1 25 39.949219 L 25 32.902344 C 24.684 32.944344 24.368484 32.986 24.021484 33 C 23.687484 32.992 23.345 32.950484 23 32.896484 L 23 39.962891 A 16 16 0 0 1 8 24 A 16 16 0 0 1 8.5214844 20 L 10.589844 20 A 14 14 0 0 0 10 24 A 14 14 0 0 0 21 37.642578 L 21 35.605469 C 20.379 35.445469 19.771359 35.252 19.193359 35 L 19 35 L 19 34.90625 C 14.8654 33.01585 12 28.859 12 24 C 12 20.403 13.575406 17.196 16.066406 15 z M 21 29 A 1 1 0 0 0 20 30 A 1 1 0 0 0 21 31 A 1 1 0 0 0 22 30 A 1 1 0 0 0 21 29 z M 27 29 A 1 1 0 0 0 26 30 A 1 1 0 0 0 27 31 A 1 1 0 0 0 28 30 A 1 1 0 0 0 27 29 z " />
</svg>
