<?xml version="1.0" encoding="UTF-8" standalone="no"?>
<svg
   xmlns:dc="http://purl.org/dc/elements/1.1/"
   xmlns:cc="http://creativecommons.org/ns#"
   xmlns:rdf="http://www.w3.org/1999/02/22-rdf-syntax-ns#"
   xmlns:svg="http://www.w3.org/2000/svg"
   xmlns="http://www.w3.org/2000/svg"
   id="svg22"
   version="1.1"
   height="48"
   width="48">
  <metadata
     id="metadata28">
    <rdf:RDF>
      <cc:Work
         rdf:about="">
        <dc:format>image/svg+xml</dc:format>
        <dc:type
           rdf:resource="http://purl.org/dc/dcmitype/StillImage" />
        <dc:title></dc:title>
      </cc:Work>
    </rdf:RDF>
  </metadata>
  <defs
     id="defs26" />
  <g
     style="fill:#cccccc"
     id="g840">
    <path
       style="fill:#cccccc"
       d="M 25.480469 4 C 20.242369 4 15.996094 7.4776 15.996094 13 C 15.996094 18.5224 20.593694 21.643 24.996094 23 C 29.300694 24.3268 34.964844 28.4776 34.964844 34 C 34.964844 39.5224 30.718569 44 25.480469 44 C 35.705469 44 43.996094 35.0448 43.996094 24 C 43.996094 12.9552 35.705769 4 25.480469 4 z M 26 10 A 4 4 0 0 1 30 14 A 4 4 0 0 1 26 18 A 4 4 0 0 1 22 14 A 4 4 0 0 1 26 10 z "
       id="path2" />
    <path
       style="fill:#cccccc"
       d="M 22.509766 4 C 12.284766 4 3.9941406 12.955 3.9941406 24 C 3.9941406 35.045 12.284466 44 22.509766 44 C 27.747866 44 31.994141 40.5224 31.994141 35 C 31.994141 29.4776 27.396541 26.357 22.994141 25 C 18.689541 23.6732 13.025391 19.5224 13.025391 14 C 13.025391 8.4776 17.271666 4 22.509766 4 z M 22 32 A 4 4 0 0 1 26 36 A 4 4 0 0 1 22 40 A 4 4 0 0 1 18 36 A 4 4 0 0 1 22 32 z "
       id="path4" />
    <g
       style="fill:#cccccc"
       opacity=".2"
       transform="translate(-310.29,-250.22)"
       id="g10" />
  </g>
</svg>
