<?xml version="1.0" encoding="UTF-8" standalone="no"?>
<svg
   xmlns:dc="http://purl.org/dc/elements/1.1/"
   xmlns:cc="http://creativecommons.org/ns#"
   xmlns:rdf="http://www.w3.org/1999/02/22-rdf-syntax-ns#"
   xmlns:svg="http://www.w3.org/2000/svg"
   xmlns="http://www.w3.org/2000/svg"
   id="svg12"
   version="1.1"
   height="48"
   width="48">
  <metadata
     id="metadata18">
    <rdf:RDF>
      <cc:Work
         rdf:about="">
        <dc:format>image/svg+xml</dc:format>
        <dc:type
           rdf:resource="http://purl.org/dc/dcmitype/StillImage" />
        <dc:title></dc:title>
      </cc:Work>
    </rdf:RDF>
  </metadata>
  <defs
     id="defs16" />
  <path
     id="circle4"
     d="M 24 4 A 20 20 0 0 0 4 24 A 20 20 0 0 0 24 44 A 20 20 0 0 0 44 24 A 20 20 0 0 0 24 4 z M 15.193359 11.050781 C 16.023304 11.01126 16.79425 11.249092 17.525391 11.664062 C 18.948153 12.454488 20.35217 13.30252 21.814453 13.994141 C 23.000088 14.567198 22.960227 15.100889 22.011719 15.832031 C 20.529675 16.978145 18.949181 17.195638 17.269531 16.326172 C 15.668924 15.496228 14.125998 14.548465 12.525391 13.738281 C 11.576883 13.264027 11.695327 12.829145 12.367188 12.236328 C 13.17737 11.505186 14.106527 11.070541 15.193359 11.050781 z M 32.083984 12.09375 C 32.9411 12.157971 33.747718 12.498981 34.449219 13.091797 C 35.160595 13.704374 35.416452 14.159365 34.369141 14.732422 C 31.582898 16.293506 28.836794 17.952356 26.070312 19.533203 C 24.726592 20.32363 23.305574 20.364184 21.882812 19.613281 C 21.369039 19.21807 20.558365 18.921054 20.578125 18.150391 C 20.597886 17.518053 21.408559 17.419227 21.882812 17.142578 C 24.372645 15.660536 26.880802 14.178622 29.410156 12.755859 C 30.319143 12.242083 31.226869 12.02953 32.083984 12.09375 z M 38.318359 18.179688 C 38.646801 18.210564 38.80745 18.543842 38.90625 19.099609 C 39.103856 20.166681 39.004239 21.174309 38.470703 22.142578 C 38.075491 22.853959 37.483094 23.387762 36.751953 23.802734 C 35.329191 24.612918 33.90645 25.38203 32.542969 26.291016 C 31.436377 27.022157 31.003558 26.707119 30.865234 25.521484 C 30.647868 23.663989 31.258768 22.18116 32.859375 21.212891 C 34.400701 20.264383 36.001872 19.435066 37.523438 18.466797 C 37.864306 18.251908 38.121293 18.161158 38.318359 18.179688 z M 9.6484375 18.53125 C 9.8553446 18.492114 10.138509 18.571064 10.53125 18.800781 C 13.297732 20.401388 16.121961 21.882044 18.908203 23.462891 C 20.271683 24.233554 21.022523 25.420649 21.101562 27.041016 C 21.022519 27.693116 21.181397 28.540564 20.529297 28.916016 C 19.976001 29.232184 19.480343 28.581336 18.986328 28.304688 C 16.437213 26.921447 13.870922 25.538227 11.361328 24.095703 C 9.5433537 23.048393 8.7521901 21.388286 9.0683594 19.570312 C 9.1671624 18.989846 9.303592 18.59647 9.6484375 18.53125 z M 29.195312 24 C 29.347487 23.996886 29.499075 24.034256 29.650391 24.128906 C 30.145603 24.447746 29.852754 25.225232 29.871094 25.783203 C 29.944455 28.712547 30 31.64097 30 34.570312 C 29.981659 36.662703 29.00975 38.156845 27.414062 38.814453 C 26.607048 39.133293 26.111328 39.153079 26.111328 37.9375 C 26.12967 34.709242 26.01834 31.481766 26 28.273438 C 25.981659 26.699161 26.607502 25.443217 27.873047 24.566406 C 28.285725 24.372114 28.738788 24.0094 29.195312 24 z M 17.726562 29.007812 C 17.908568 29.029502 18.123729 29.097216 18.375 29.205078 C 19.936474 29.880393 20.834832 31.081975 20.888672 32.882812 C 20.942514 34.589858 20.906354 36.31444 20.996094 38.021484 C 21.049938 39.034459 20.654577 39.148567 19.882812 38.867188 C 18.949518 38.529528 18.196272 37.984406 17.675781 37.083984 C 17.262977 36.408669 17.099609 35.67772 17.099609 34.871094 C 17.099609 33.332876 17.119406 31.774545 17.011719 30.236328 C 16.944414 29.2937 17.18055 28.942743 17.726562 29.007812 z "
     style="fill:#cccccc" />
</svg>
