<?xml version="1.0" encoding="UTF-8" standalone="no"?>
<svg
   xmlns:dc="http://purl.org/dc/elements/1.1/"
   xmlns:cc="http://creativecommons.org/ns#"
   xmlns:rdf="http://www.w3.org/1999/02/22-rdf-syntax-ns#"
   xmlns:svg="http://www.w3.org/2000/svg"
   xmlns="http://www.w3.org/2000/svg"
   xmlns:sodipodi="http://sodipodi.sourceforge.net/DTD/sodipodi-0.dtd"
   xmlns:inkscape="http://www.inkscape.org/namespaces/inkscape"
   height="64"
   width="64"
   version="1"
   id="svg35"
   sodipodi:docname="ArcMenu-logo-raw.svg"
   inkscape:version="0.92.4 (5da689c313, 2019-01-14)">
  <metadata
     id="metadata39">
    <rdf:RDF>
      <cc:Work
         rdf:about="">
        <dc:format>image/svg+xml</dc:format>
        <dc:type
           rdf:resource="http://purl.org/dc/dcmitype/StillImage" />
      </cc:Work>
    </rdf:RDF>
  </metadata>
  <sodipodi:namedview
     pagecolor="#ffffff"
     bordercolor="#666666"
     borderopacity="1"
     objecttolerance="10"
     gridtolerance="10"
     guidetolerance="10"
     inkscape:pageopacity="0"
     inkscape:pageshadow="2"
     inkscape:window-width="1920"
     inkscape:window-height="1015"
     id="namedview37"
     showgrid="false"
     inkscape:zoom="10.429825"
     inkscape:cx="18.870349"
     inkscape:cy="32"
     inkscape:window-x="0"
     inkscape:window-y="31"
     inkscape:window-maximized="1"
     inkscape:current-layer="svg35" />
  <defs
     id="defs7">
    <linearGradient
       id="linearGradient4924"
       y2="20.316"
       gradientUnits="userSpaceOnUse"
       y1="18.858"
       x2="16.213"
       x1="12.897"
       gradientTransform="matrix(1.925369,0,0,1.925369,0.9566632,3.1658152)">
      <stop
         offset="0"
         id="stop2" />
      <stop
         stop-opacity="0"
         offset="1"
         id="stop4" />
    </linearGradient>
  </defs>
  <ellipse
     id="path3744"
     cx="32.023548"
     cy="31.968884"
     rx="29.33894"
     ry="28.332212"
     style="fill:#f9f9f9;stroke:#1e90ff;stroke-width:1.006;stroke-opacity:1;stroke-miterlimit:4;stroke-dasharray:none;fill-opacity:1" />
  <path
     style="opacity:0.2;fill:#101010;stroke-width:0.96268445"
     d="m 23.470003,44.561248 -1.037774,1.925368 h 9.330338 v -1.925368 z"
     id="path9"
     inkscape:connector-curvature="0" />
  <path
     style="opacity:0.2;stroke-width:0.96268445"
     d="m 25.023776,17.606081 6.738791,11.552214 6.738791,-11.552214 h -1.124416 l -5.614375,9.626845 -5.614376,-9.626845 z M 5.867894,52.262723 4.807401,54.188092 h 13.477583 l -1.188338,-1.925369 z m 40.559823,0 -1.187953,1.925369 h 13.477584 l -1.060879,-1.925369 z"
     id="path11"
     inkscape:connector-curvature="0" />
  <polygon
     points="664 430.5 588 333 517.5 214 500 192 386 355 328 328 304 332.5 299.5 366 318.5 403.5 338 431 309.5 462 275.5 507 300 533 304 551 318.5 569.5 340.5 583 351.5 604.5 373.5 617 395 637.5 452.5 723 488.5 788.5 502 812.5 551.5 721.5 612.5 637 628.5 616 668 619.5 707 615 713 603 688.5 578 676.5 569.5 693.5 560.5 693.5 540 732.5 497.5"
     transform="matrix(0.063142,0,0,0.063142,-131,7.97)"
     display="none"
     style="display:none;fill:#5a0e00"
     id="polygon13" />
  <polygon
     points="386 355 328 328 304 332.5 299.5 366 318.5 403.5 338 431 309.5 462 275.5 507 300 533 304 551 318.5 569.5 340.5 583 351.5 604.5 373.5 617 395 637.5 452.5 723 488.5 788.5 502 812.5 551.5 721.5 612.5 637 628.5 616 668 619.5 707 615 713 603 688.5 578 676.5 569.5 693.5 560.5 693.5 540 732.5 497.5 664 430.5 588 333 517.5 214 500 192"
     transform="matrix(0.063142,0,0,0.063142,-187.14,4.387)"
     display="none"
     style="display:none;fill:#5a0e00"
     id="polygon15" />
  <path
     style="fill:#b0c4de;stroke-width:0.96268445;fill-opacity:1"
     d="M 4.807401,53.225408 H 18.284984 L 31.762567,28.195611 45.24015,53.225408 H 58.717732 L 38.501358,16.643397 H 25.023776 Z"
     id="path17"
     inkscape:connector-curvature="0" />
  <path
     style="opacity:0.2;fill:#ffffff;stroke-width:0.96268445"
     d="M 25.023776,16.643397 4.807401,53.225408 H 5.33951 L 25.023776,17.606081 h 13.477582 l 19.684266,35.619327 h 0.532108 L 38.501358,16.643397 Z"
     id="path19"
     inkscape:connector-curvature="0" />
  <path
     style="fill:#e0ffff;stroke-width:0.96268445;fill-opacity:1"
     d="m 11.161119,41.673194 7.123865,11.552214 H 4.807401 Z"
     id="path21"
     inkscape:connector-curvature="0" />
  <path
     style="fill:#e0ffff;stroke-width:0.96268445;fill-opacity:1"
     d="m 52.364015,41.673194 6.353717,11.552214 H 45.24015 Z"
     id="path23"
     inkscape:connector-curvature="0" />
  <path
     style="fill:#4682b4;stroke-width:0.96268445;fill-opacity:1"
     d="M 31.762567,28.195611 38.501358,16.643397 H 25.023776 Z"
     id="path25"
     inkscape:connector-curvature="0" />
  <path
     style="fill:#5d5d5d;stroke-width:0.96268445"
     d="m 28.653096,33.971717 -6.220867,11.552215 h 9.330338 V 33.971717 Z"
     id="path27"
     inkscape:connector-curvature="0" />
  <path
     style="opacity:0.15;fill:#708090;stroke-width:0.96268445;fill-opacity:1"
     d="m 28.653096,33.971717 -6.220867,11.552215 h 9.330338 V 33.971717 Z"
     id="path29"
     inkscape:connector-curvature="0" />
  <path
     style="opacity:0.2;fill:#ffffff;stroke-width:0.96268445"
     d="m 28.652644,33.971717 -6.219843,11.552215 h 0.518946 l 5.700897,-10.58953 h 3.109923 v -0.962685 z"
     id="path31"
     inkscape:connector-curvature="0" />
  <path
     style="opacity:0.2;fill:#ffffff;stroke-width:0.96268445"
     d="m 25.023776,16.643397 0.562192,0.962684 h 12.353197 l 0.562193,-0.962684 z M 11.162623,41.673194 4.807401,53.225408 H 5.33763 l 5.824993,-10.589529 0.01505,0.02445 0.280156,-0.507666 z m 41.199887,0 -0.295197,0.479462 0.280155,0.507666 0.01505,-0.02445 5.824993,10.589529 h 0.530229 z m -40.342496,1.389499 -0.280156,0.507666 5.950969,9.655049 h 0.594157 z m 39.485105,0 -6.264969,10.162715 h 0.594157 l 5.950968,-9.655049 z"
     id="path33"
     inkscape:connector-curvature="0" />
</svg>
