<?xml version="1.0" encoding="UTF-8" standalone="no"?>
<svg
   xmlns:dc="http://purl.org/dc/elements/1.1/"
   xmlns:cc="http://creativecommons.org/ns#"
   xmlns:rdf="http://www.w3.org/1999/02/22-rdf-syntax-ns#"
   xmlns:svg="http://www.w3.org/2000/svg"
   xmlns="http://www.w3.org/2000/svg"
   xmlns:sodipodi="http://sodipodi.sourceforge.net/DTD/sodipodi-0.dtd"
   xmlns:inkscape="http://www.inkscape.org/namespaces/inkscape"
   id="svg2"
   version="1"
   width="64"
   height="64"
   inkscape:version="0.91 r13725"
   sodipodi:docname="ark-panel-button-light.svg"
   inkscape:export-filename="/media/andy/Seagate/ups/ark-game3.svg.png"
   inkscape:export-xdpi="327.12424"
   inkscape:export-ydpi="327.12424">
  <sodipodi:namedview
     pagecolor="#ffffff"
     bordercolor="#666666"
     borderopacity="1"
     objecttolerance="10"
     gridtolerance="10"
     guidetolerance="10"
     inkscape:pageopacity="0"
     inkscape:pageshadow="2"
     inkscape:window-width="1920"
     inkscape:window-height="1026"
     id="namedview21"
     showgrid="false"
     inkscape:zoom="7.375"
     inkscape:cx="-4.8135593"
     inkscape:cy="48.327804"
     inkscape:window-x="0"
     inkscape:window-y="26"
     inkscape:window-maximized="1"
     inkscape:current-layer="svg2" />
  <metadata
     id="metadata39">
    <rdf:RDF>
      <cc:Work
         rdf:about="">
        <dc:format>image/svg+xml</dc:format>
        <dc:type
           rdf:resource="http://purl.org/dc/dcmitype/StillImage" />
        <dc:title></dc:title>
      </cc:Work>
    </rdf:RDF>
  </metadata>
  <defs
     id="defs4">
    <linearGradient
       gradientTransform="matrix(2,0,0,2,0,-1)"
       x1="12.897"
       x2="16.213"
       y1="18.858"
       gradientUnits="userSpaceOnUse"
       y2="20.316"
       id="linearGradient4924">
      <stop
         id="stop7"
         offset="0" />
      <stop
         id="stop9"
         offset="1"
         stop-opacity="0" />
    </linearGradient>
    <filter
       inkscape:menu="Shadows and Glows"
       inkscape:menu-tooltip="Cut out, add inner shadow and colorize some parts of an image"
       style="color-interpolation-filters:sRGB;"
       inkscape:label="Drop Shadow"
       id="filter3415">
      <feColorMatrix
         values="0 0 0 0 0 0 0 0 0 0 0 0 0 0 0 0.21 0.72 0.07 0 0 "
         result="result1"
         id="feColorMatrix3417" />
      <feColorMatrix
         values="1 0 0 0 0 0 1 0 0 0 0 0 1 0 0 0 0 0 2 0 "
         result="result9"
         id="feColorMatrix3419" />
      <feComposite
         in2="result9"
         in="SourceGraphic"
         operator="in"
         result="result4"
         id="feComposite3421" />
      <feFlood
         result="result2"
         flood-color="rgb(0,0,0)"
         id="feFlood3423" />
      <feComposite
         in2="result9"
         operator="in"
         result="result10"
         id="feComposite3425" />
      <feComposite
         in2="result4"
         operator="atop"
         id="feComposite3427" />
      <feGaussianBlur
         stdDeviation="3"
         result="result8"
         id="feGaussianBlur3429" />
      <feOffset
         dx="3"
         dy="3"
         result="result3"
         in="result8"
         id="feOffset3431" />
      <feFlood
         flood-opacity="1"
         flood-color="rgb(219,173,62)"
         result="result5"
         id="feFlood3433" />
      <feMerge
         result="result6"
         id="feMerge3435">
        <feMergeNode
           in="result5"
           id="feMergeNode3437" />
        <feMergeNode
           in="result3"
           id="feMergeNode3439" />
        <feMergeNode
           in="result4"
           id="feMergeNode3441" />
      </feMerge>
      <feComposite
         in2="SourceGraphic"
         operator="in"
         result="fbSourceGraphic"
         id="feComposite3443" />
      <feColorMatrix
         result="fbSourceGraphicAlpha"
         in="fbSourceGraphic"
         values="0 0 0 -1 0 0 0 0 -1 0 0 0 0 -1 0 0 0 0 1 0"
         id="feColorMatrix3451" />
      <feFlood
         id="feFlood3453"
         flood-opacity="0.498039"
         flood-color="rgb(0,0,0)"
         result="flood"
         in="fbSourceGraphic" />
      <feComposite
         id="feComposite3455"
         in2="fbSourceGraphic"
         in="flood"
         operator="out"
         result="composite1" />
      <feGaussianBlur
         id="feGaussianBlur3457"
         in="composite1"
         stdDeviation="3"
         result="blur" />
      <feOffset
         id="feOffset3459"
         dx="6"
         dy="6"
         result="offset" />
      <feComposite
         id="feComposite3461"
         in2="fbSourceGraphic"
         in="offset"
         operator="atop"
         result="composite2" />
    </filter>
  </defs>
  <ellipse
     style="fill:none;fill-opacity:1;stroke-width:3;stroke-miterlimit:4;stroke-dasharray:none;stroke:#ffffff;stroke-opacity:1;opacity:1"
     id="path3375"
     cx="31.932203"
     cy="32.199944"
     rx="28.40678"
     ry="28.403334"
     inkscape:export-xdpi="327.12424"
     inkscape:export-ydpi="327.12424" />
  <polygon
     id="polygon15"
     style="display:none;fill:#5a0e00"
     display="none"
     transform="matrix(0.063142,0,0,0.063142,-131,7.97)"
     points="664 430.5 588 333 517.5 214 500 192 386 355 328 328 304 332.5 299.5 366 318.5 403.5 338 431 309.5 462 275.5 507 300 533 304 551 318.5 569.5 340.5 583 351.5 604.5 373.5 617 395 637.5 452.5 723 488.5 788.5 502 812.5 551.5 721.5 612.5 637 628.5 616 668 619.5 707 615 713 603 688.5 578 676.5 569.5 693.5 560.5 693.5 540 732.5 497.5" />
  <polygon
     id="polygon17"
     style="display:none;fill:#5a0e00"
     display="none"
     transform="matrix(0.063142,0,0,0.063142,-187.14,4.387)"
     points="386 355 328 328 304 332.5 299.5 366 318.5 403.5 338 431 309.5 462 275.5 507 300 533 304 551 318.5 569.5 340.5 583 351.5 604.5 373.5 617 395 637.5 452.5 723 488.5 788.5 502 812.5 551.5 721.5 612.5 637 628.5 616 668 619.5 707 615 713 603 688.5 578 676.5 569.5 693.5 560.5 693.5 540 732.5 497.5 664 430.5 588 333 517.5 214 500 192" />
  <path
     id="path19"
     d="M 8.6904812,49.746307 20.296487,49.679795 31.755648,23.021113 43.508499,49.546762 55.114507,49.48024 37.490878,10.71454 25.884871,10.781062 Z"
     style="opacity:1;fill:#ffffff"
     inkscape:connector-curvature="0" />
  <path
     id="path29"
     d="m 29.054365,28.77328 -6.372658,12.047684 9.691733,-0.07201 -0.08916,-11.999669 -3.229911,0.024 z"
     style="opacity:1;fill:#ffffff"
     inkscape:connector-curvature="0" />
  <path
     id="path35"
     d="m -66.366567,-18.927869 0.583984,1 12.832032,0 0.583984,-1 -14,0 z m -14.398438,25.9999998 -6.601561,12.0000002 0.550781,0 6.05078,-11.0000002 0.01563,0.02539 0.291015,-0.527344 -0.306641,-0.498047 z m 42.796876,0 -0.306641,0.498047 0.291015,0.527344 0.01563,-0.02539 6.050781,11.0000002 0.550781,0 -6.601562,-12.0000002 z m -41.90625,1.443359 -0.291016,0.527344 6.18164,10.0292972 0.617188,0 -6.507812,-10.5566412 z m 41.015624,0 -6.507812,10.5566412 0.617188,0 6.18164,-10.0292972 -0.291016,-0.527344 z"
     style="opacity:0.2;fill:#ffffff"
     inkscape:connector-curvature="0" />
</svg>
