<?xml version="1.0" encoding="UTF-8" standalone="no"?>
<svg
   xmlns:dc="http://purl.org/dc/elements/1.1/"
   xmlns:cc="http://creativecommons.org/ns#"
   xmlns:rdf="http://www.w3.org/1999/02/22-rdf-syntax-ns#"
   xmlns:svg="http://www.w3.org/2000/svg"
   xmlns="http://www.w3.org/2000/svg"
   xmlns:sodipodi="http://sodipodi.sourceforge.net/DTD/sodipodi-0.dtd"
   xmlns:inkscape="http://www.inkscape.org/namespaces/inkscape"
   width="14.019273"
   height="10.016101"
   version="1.1"
   viewBox="0 0 14.019273 10.016101"
   id="svg4"
   sodipodi:docname="browse-layouts-symbolic.svg"
   inkscape:version="0.92.4 (5da689c313, 2019-01-14)">
  <metadata
     id="metadata10">
    <rdf:RDF>
      <cc:Work
         rdf:about="">
        <dc:format>image/svg+xml</dc:format>
        <dc:type
           rdf:resource="http://purl.org/dc/dcmitype/StillImage" />
        <dc:title></dc:title>
      </cc:Work>
    </rdf:RDF>
  </metadata>
  <defs
     id="defs8" />
  <sodipodi:namedview
     pagecolor="#ffffff"
     bordercolor="#666666"
     borderopacity="1"
     objecttolerance="10"
     gridtolerance="10"
     guidetolerance="10"
     inkscape:pageopacity="0"
     inkscape:pageshadow="2"
     inkscape:window-width="1596"
     inkscape:window-height="795"
     id="namedview6"
     showgrid="false"
     fit-margin-top="0"
     fit-margin-left="0"
     fit-margin-right="0"
     fit-margin-bottom="0"
     inkscape:zoom="14.75"
     inkscape:cx="7.0096363"
     inkscape:cy="5.0080505"
     inkscape:window-x="1"
     inkscape:window-y="40"
     inkscape:window-maximized="0"
     inkscape:current-layer="svg4" />
  <path
     style="fill:#444444"
     d="M 7,0 A 4,4 0 0 0 3,4 4,4 0 0 0 7,7.9999995 4,4 0 0 0 9.3320313,7.2441405 l 3.0273437,2.523437 a 1.0001,1.0001 0 1 0 1.28125,-1.535156 L 10.611328,5.7089844 A 4,4 0 0 0 11,4 4,4 0 0 0 7,0 Z M 0,0.00391 v 2 h 2 v -2 z M 7,2 A 2,2 0 0 1 9,4 2,2 0 0 1 8.96875,4.3398438 2,2 0 0 1 7.6894531,5.875 2,2 0 0 1 7.4980469,5.935547 2,2 0 0 1 7.3183594,5.972656 2,2 0 0 1 7.2265624,5.984375 2,2 0 0 1 7.111328,5.996094 a 2,2 0 0 1 -0.00781,0 A 2,2 0 0 1 7,6.000004 a 2,2 0 0 1 -2,-2 A 2,2 0 0 1 5.00977,3.8007852 2,2 0 0 1 7,2.000004 Z M 0,4.0039062 v 2 h 2 v -2 z M 0,8.0039055 V 10.003906 H 2 V 8.0039055 Z"
     id="path2"
     inkscape:connector-curvature="0" />
</svg>
