<?xml version="1.0" encoding="UTF-8" standalone="no"?>
<svg
   xmlns:dc="http://purl.org/dc/elements/1.1/"
   xmlns:cc="http://creativecommons.org/ns#"
   xmlns:rdf="http://www.w3.org/1999/02/22-rdf-syntax-ns#"
   xmlns:svg="http://www.w3.org/2000/svg"
   xmlns="http://www.w3.org/2000/svg"
   xmlns:sodipodi="http://sodipodi.sourceforge.net/DTD/sodipodi-0.dtd"
   xmlns:inkscape="http://www.inkscape.org/namespaces/inkscape"
   width="48"
   height="48"
   version="1"
   id="svg40"
   sodipodi:docname="clean.svg"
   inkscape:version="0.92.3 (2405546, 2018-03-11)">
  <metadata
     id="metadata46">
    <rdf:RDF>
      <cc:Work
         rdf:about="">
        <dc:format>image/svg+xml</dc:format>
        <dc:type
           rdf:resource="http://purl.org/dc/dcmitype/StillImage" />
      </cc:Work>
    </rdf:RDF>
  </metadata>
  <defs
     id="defs44" />
  <sodipodi:namedview
     pagecolor="#ffffff"
     bordercolor="#666666"
     borderopacity="1"
     objecttolerance="10"
     gridtolerance="10"
     guidetolerance="10"
     inkscape:pageopacity="0"
     inkscape:pageshadow="2"
     inkscape:window-width="3840"
     inkscape:window-height="2053"
     id="namedview42"
     showgrid="false"
     inkscape:zoom="19.666667"
     inkscape:cx="21.584746"
     inkscape:cy="24"
     inkscape:window-x="0"
     inkscape:window-y="46"
     inkscape:window-maximized="1"
     inkscape:current-layer="svg40" />
  <rect
     style="opacity:0.2"
     width="25"
     height="30"
     x="7"
     y="14"
     id="rect2" />
  <rect
     style="fill:#4d565b"
     width="25"
     height="30"
     x="7"
     y="13"
     id="rect4" />
  <rect
     style="fill:#e4e4e4"
     width="8"
     height="2"
     x="9"
     y="15"
     id="rect6" />
  <path
     style="opacity:0.2"
     d="M 6.2851562,6 C 5.0188705,6 4,7.0180134 4,8.2851562 V 11 13.714844 C 4,14.981987 5.0188705,16 6.2851562,16 H 12 36 41.714844 C 42.98113,16 44,14.981987 44,13.714844 V 11 8.2851562 C 44,7.0180134 42.98113,6 41.714844,6 H 36 12 Z"
     id="path8" />
  <path
     style="fill:#636e73"
     d="M 6.2851562,5 C 5.0188705,5 4,6.0180134 4,7.2851562 V 10 12.714844 C 4,13.981987 5.0188705,15 6.2851562,15 H 12 36 41.714844 C 42.98113,15 44,13.981987 44,12.714844 V 10 7.2851562 C 44,6.0180134 42.98113,5 41.714844,5 H 36 12 Z"
     id="path10" />
  <rect
     style="opacity:0.2"
     width="25"
     height="6"
     x="7"
     y="19"
     rx="1"
     ry="1.2"
     id="rect16" />
  <rect
     style="fill:#e4e4e4"
     width="4"
     height="2"
     x="9"
     y="21"
     id="rect18" />
  <rect
     style="fill:#e4e4e4"
     width="6"
     height="2"
     x="9"
     y="27"
     id="rect20" />
  <path
     style="fill:#e4e4e4"
     d="M 9 33 L 9 35 L 14 35 L 22 35 L 22 33 L 14 33 L 9 33 z"
     id="path22" />
  <path
     style="opacity:0.2"
     d="m 18.572411,21.000184 c 0.132437,0.0031 0.259428,0.05187 0.358258,0.137637 l 8.537564,6.735175 c 0.354379,0.307059 0.177654,0.876712 -0.292262,0.942077 l -3.310512,0.46369 1.55155,2.665883 c 0.346727,0.595843 0.141279,1.353067 -0.45927,1.697076 l -0.332667,0.191089 c -0.600547,0.344011 -1.363749,0.140172 -1.710476,-0.455672 L 21.303785,30.608364 18.94279,32.50722 c -0.363475,0.293338 -0.914044,0.04235 -0.914498,-0.416921 L 18.000002,21.54405 c -8.97e-4,-0.30569 0.258072,-0.55173 0.572406,-0.543866 z"
     id="path24" />
  <path
     style="fill:#00caff"
     d="m 18.572411,20.000184 c 0.132437,0.0031 0.259428,0.05187 0.358258,0.137637 l 8.537564,6.735175 c 0.354379,0.307059 0.177654,0.876712 -0.292262,0.942077 l -3.310512,0.46369 1.55155,2.665883 c 0.346727,0.595843 0.141279,1.353067 -0.45927,1.697076 l -0.332667,0.191089 c -0.600547,0.344011 -1.363749,0.140172 -1.710476,-0.455672 L 21.303785,29.608364 18.94279,31.50722 c -0.363475,0.293338 -0.914044,0.04235 -0.914498,-0.416921 L 18.000002,20.54405 c -8.97e-4,-0.30569 0.258072,-0.55173 0.572406,-0.543866 z"
     id="path26" />
  <path
     style="fill:#ffffff;opacity:0.1"
     d="M 6.2851562 5 C 5.0188705 5 4 6.0180134 4 7.2851562 L 4 8.2851562 C 4 7.0180135 5.0188705 6 6.2851562 6 L 12 6 L 36 6 L 41.714844 6 C 42.98113 6 44 7.0180135 44 8.2851562 L 44 7.2851562 C 44 6.0180134 42.98113 5 41.714844 5 L 36 5 L 12 5 L 6.2851562 5 z"
     id="path32" />
</svg>
