<?xml version="1.0" encoding="UTF-8" standalone="no"?>
<svg
   xmlns:dc="http://purl.org/dc/elements/1.1/"
   xmlns:cc="http://creativecommons.org/ns#"
   xmlns:rdf="http://www.w3.org/1999/02/22-rdf-syntax-ns#"
   xmlns:svg="http://www.w3.org/2000/svg"
   xmlns="http://www.w3.org/2000/svg"
   xmlns:sodipodi="http://sodipodi.sourceforge.net/DTD/sodipodi-0.dtd"
   xmlns:inkscape="http://www.inkscape.org/namespaces/inkscape"
   viewBox="0 0 64 64"
   version="1.1"
   id="svg4"
   sodipodi:docname="arc-menu-symbolic.svg"
   width="64"
   height="64"
   inkscape:version="0.92.4 (5da689c313, 2019-01-14)">
  <metadata
     id="metadata10">
    <rdf:RDF>
      <cc:Work
         rdf:about="">
        <dc:format>image/svg+xml</dc:format>
        <dc:type
           rdf:resource="http://purl.org/dc/dcmitype/StillImage" />
        <dc:title></dc:title>
      </cc:Work>
    </rdf:RDF>
  </metadata>
  <defs
     id="defs8" />
  <sodipodi:namedview
     pagecolor="#ffffff"
     bordercolor="#666666"
     borderopacity="1"
     objecttolerance="10"
     gridtolerance="10"
     guidetolerance="10"
     inkscape:pageopacity="0"
     inkscape:pageshadow="2"
     inkscape:window-width="1920"
     inkscape:window-height="1012"
     id="namedview6"
     showgrid="false"
     inkscape:zoom="7.375"
     inkscape:cx="33.604918"
     inkscape:cy="35.665911"
     inkscape:window-x="0"
     inkscape:window-y="32"
     inkscape:window-maximized="1"
     inkscape:current-layer="svg4" />
  <path
     style="fill:#cccccc;stroke-width:0.44807741"
     d="M 31.999773,0.57545673 A 31.593249,31.593249 0 0 0 0.40644844,32.168786 31.593249,31.593249 0 0 0 31.999773,63.761898 31.593249,31.593249 0 0 0 63.592889,32.168786 31.593249,31.593249 0 0 0 31.999773,0.57545673 Z m 5.51e-4,7.51929507 c 5.280122,0 6.047307,0.4224113 19.898354,29.9021042 h 0.0014 c 0,0.07306 1.809658,3.835694 1.807509,4.253761 2.712603,7.451064 -2.871597,13.997149 -9.630538,13.991778 -1.194018,0 -5.770101,0.148271 -12.076583,-6.706322 -5.562772,6.054998 -9.743567,6.706322 -12.076794,6.706322 -6.758941,0 -12.3430902,-6.540714 -9.632636,-13.991778 0.09567,-0.281575 1.201545,-3.515368 12.610818,-26.332841 2.126879,-4.419269 4.206488,-7.8230242 9.098633,-7.8230242 z m -0.0054,3.0898272 c -3.634717,0 -4.688905,2.937261 -6.381594,6.168961 -0.446012,1.115567 -10.830115,21.752475 -12.452949,25.961097 -1.914084,5.37685 2.289246,10.588162 7.662868,9.789643 2.643821,-0.239664 5.655032,-2.027988 9.15111,-5.902374 -3.138196,-3.988298 -5.104907,-7.556387 -5.849691,-10.693505 -1.276773,-5.80244 1.973327,-10.800982 7.875714,-10.800982 6.981407,0 13.192197,7.515554 2.025811,21.494487 3.829243,4.254837 8.301046,7.391817 12.821337,5.424003 3.830314,-1.649709 5.393149,-5.757153 3.977738,-9.311272 C 48.085837,36.693261 42.352201,25.20878 38.483193,17.619071 36.659386,13.972532 35.470621,11.184579 31.994964,11.184579 Z m 0.0086,17.538364 c -3.025615,0 -6.051159,2.364397 -4.839407,7.093181 0.528764,2.552476 2.123656,5.53608 4.836258,8.939737 h 0.0063 c 2.655641,-3.350995 4.250533,-6.333533 4.836257,-8.939737 1.21175,-4.728784 -1.813789,-7.093181 -4.839408,-7.093181 z"
     id="path3944"
     inkscape:connector-curvature="0" />
  <path
     inkscape:connector-curvature="0"
     id="path3950"
     d="M 31.999773,0.57545673 A 31.593249,31.593249 0 0 0 0.40644844,32.168786 31.593249,31.593249 0 0 0 31.999773,63.761898 31.593249,31.593249 0 0 0 63.592889,32.168786 31.593249,31.593249 0 0 0 31.999773,0.57545673 Z m 5.51e-4,7.51929507 c 5.280122,0 6.047307,0.4224113 19.898354,29.9021042 h 0.0014 c 0,0.07306 1.809658,3.835694 1.807509,4.253761 2.712603,7.451064 -2.871597,13.997149 -9.630538,13.991778 -1.194018,0 -5.770101,0.148271 -12.076583,-6.706322 -5.562772,6.054998 -9.743567,6.706322 -12.076794,6.706322 -6.758941,0 -12.3430902,-6.540714 -9.632636,-13.991778 0.09567,-0.281575 1.201545,-3.515368 12.610818,-26.332841 2.126879,-4.419269 4.206488,-7.8230242 9.098633,-7.8230242 z m -0.0054,3.0898272 c -3.634717,0 -4.688905,2.937261 -6.381594,6.168961 -0.446012,1.115567 -10.830115,21.752475 -12.452949,25.961097 -1.914084,5.37685 2.289246,10.588162 7.662868,9.789643 2.643821,-0.239664 5.655032,-2.027988 9.15111,-5.902374 -3.138196,-3.988298 -5.104907,-7.556387 -5.849691,-10.693505 -1.276773,-5.80244 1.973327,-10.800982 7.875714,-10.800982 6.981407,0 13.192197,7.515554 2.025811,21.494487 3.829243,4.254837 8.301046,7.391817 12.821337,5.424003 3.830314,-1.649709 5.393149,-5.757153 3.977738,-9.311272 C 48.085837,36.693261 42.352201,25.20878 38.483193,17.619071 36.659386,13.972532 35.470621,11.184579 31.994964,11.184579 Z m 0.0086,17.538364 c -3.025615,0 -6.051159,2.364397 -4.839407,7.093181 0.528764,2.552476 2.123656,5.53608 4.836258,8.939737 h 0.0063 c 2.655641,-3.350995 4.250533,-6.333533 4.836257,-8.939737 1.21175,-4.728784 -1.813789,-7.093181 -4.839408,-7.093181 z"
     style="fill:#cccccc;stroke-width:0.44807741" />
</svg>
