<?xml version="1.0" encoding="UTF-8" standalone="no"?>
<svg
   xmlns:dc="http://purl.org/dc/elements/1.1/"
   xmlns:cc="http://creativecommons.org/ns#"
   xmlns:rdf="http://www.w3.org/1999/02/22-rdf-syntax-ns#"
   xmlns:svg="http://www.w3.org/2000/svg"
   xmlns="http://www.w3.org/2000/svg"
   id="svg14"
   version="1"
   height="48"
   width="48">
  <metadata
     id="metadata20">
    <rdf:RDF>
      <cc:Work
         rdf:about="">
        <dc:format>image/svg+xml</dc:format>
        <dc:type
           rdf:resource="http://purl.org/dc/dcmitype/StillImage" />
        <dc:title></dc:title>
      </cc:Work>
    </rdf:RDF>
  </metadata>
  <defs
     id="defs18" />
  <path
     id="path8"
     d="M 24.100241,3.6914781 A 2.9218854,2.9218854 0 0 0 22.077379,4.5474143 L 4.5506743,22.074119 a 2.9218854,2.9218854 0 0 0 0,4.131316 L 22.080233,43.737848 a 2.9218854,2.9218854 0 0 0 4.131314,0 L 39.963579,29.985817 H 31.698095 L 24.14589,37.538022 10.747646,24.139778 24.143037,10.744387 l 7.555058,7.555057 h 8.265484 L 26.208695,4.5474143 A 2.9218854,2.9218854 0 0 0 24.100241,3.6914781 Z m 2.967243,17.5295599 a 2.9218854,2.9218854 0 1 0 0,5.843186 H 41.67545 a 2.9218854,2.9218854 0 1 0 0,-5.843186 z"
     style="opacity:1;fill:#cccccc;stroke-width:1.46079659" />
</svg>
