<?xml version="1.0" encoding="UTF-8" standalone="no"?>
<svg
   xmlns:dc="http://purl.org/dc/elements/1.1/"
   xmlns:cc="http://creativecommons.org/ns#"
   xmlns:rdf="http://www.w3.org/1999/02/22-rdf-syntax-ns#"
   xmlns:svg="http://www.w3.org/2000/svg"
   xmlns="http://www.w3.org/2000/svg"
   id="svg22"
   version="1.1"
   height="48"
   width="48">
  <metadata
     id="metadata28">
    <rdf:RDF>
      <cc:Work
         rdf:about="">
        <dc:format>image/svg+xml</dc:format>
        <dc:type
           rdf:resource="http://purl.org/dc/dcmitype/StillImage" />
        <dc:title></dc:title>
      </cc:Work>
    </rdf:RDF>
  </metadata>
  <defs
     id="defs26" />
  <path
     id="circle4"
     d="M 24 4 A 20 20 0 0 0 4 24 A 20 20 0 0 0 24 44 A 20 20 0 0 0 44 24 A 20 20 0 0 0 24 4 z M 22.595703 10.005859 C 24.209967 9.9524169 25.646089 10.258683 26.769531 10.705078 C 27.067926 10.823644 27.358141 10.946771 27.607422 11.082031 C 21.325164 11.320847 22.278103 14.627119 23.212891 16.53125 C 27.985869 15.14805 32.286112 14.076232 35.646484 12.929688 C 33.307768 16.018842 29.419645 20.192411 25.164062 20.742188 C 20.908479 21.291964 16.451489 20.682208 15.511719 23.851562 C 14.64628 26.770253 18.091068 29.494658 21.248047 28.837891 C 24.62069 28.136253 23.891576 24.314062 22.046875 21.710938 C 23.4481 21.630588 23.188282 21.651022 25.564453 21.53125 C 29.106265 24.550265 30.279035 25.595284 36.466797 30 C 32.594944 29.723022 29.310714 28.836257 26.539062 26.800781 L 26.542969 26.8125 C 27.428946 29.036383 29.589808 34.083695 30 38 C 28.027446 35.165562 27.012072 34.122975 23.955078 32.078125 C 20.622309 29.848805 17.544188 29.445669 15.568359 26.998047 C 15.565149 26.99407 15.561798 26.990316 15.558594 26.986328 C 15.216774 26.560957 14.903573 26.080972 14.632812 25.511719 C 14.447667 25.122456 14.321735 24.747607 14.228516 24.380859 C 14.222082 24.357516 14.217042 24.333838 14.210938 24.310547 C 14.178501 24.175323 14.151364 24.042189 14.130859 23.910156 C 13.652165 21.28532 15.343613 19.034682 19.552734 17.638672 C 18.356326 14.293367 12.522833 15.112617 11.533203 15.037109 C 12.661443 14.477052 13.679932 14.016952 16.005859 12.332031 C 18.246229 10.709093 20.552679 10.073497 22.595703 10.005859 z "
     style="fill:#cccccc" />
</svg>
