<?xml version="1.0" encoding="UTF-8" standalone="no"?>
<svg
   xmlns:dc="http://purl.org/dc/elements/1.1/"
   xmlns:cc="http://creativecommons.org/ns#"
   xmlns:rdf="http://www.w3.org/1999/02/22-rdf-syntax-ns#"
   xmlns:svg="http://www.w3.org/2000/svg"
   xmlns="http://www.w3.org/2000/svg"
   id="svg20"
   version="1"
   height="48"
   width="48">
  <metadata
     id="metadata26">
    <rdf:RDF>
      <cc:Work
         rdf:about="">
        <dc:format>image/svg+xml</dc:format>
        <dc:type
           rdf:resource="http://purl.org/dc/dcmitype/StillImage" />
        <dc:title></dc:title>
      </cc:Work>
    </rdf:RDF>
  </metadata>
  <defs
     id="defs24" />
  <path
     style="fill:#cccccc"
     id="rect2"
     d="M 24 4 C 12.92 4 4 12.92 4 24 C 4 35.08 12.92 44 24 44 C 35.08 44 44 35.08 44 24 C 44 12.92 35.08 4 24 4 z M 36 13.001953 C 36 13.001953 36.098405 16.5984 34.400391 20.195312 C 33.801738 21.294675 33.001373 22.494721 32.001953 23.494141 C 30.398883 25.04524 27.427454 27.505027 25.005859 29.462891 L 25.005859 33.988281 L 22.007812 35.986328 L 21.066406 32.501953 C 20.976458 32.501953 20.838236 32.481794 20.652344 32.423828 L 19.410156 32.988281 C 19.410156 32.988281 18.909619 33.189915 17.310547 31.589844 C 15.811417 29.990772 16.011719 29.589844 16.011719 29.589844 L 16.539062 28.431641 C 16.445117 28.200775 16.412338 28.031086 16.402344 27.910156 L 13.011719 26.992188 L 15.011719 23.994141 L 19.402344 23.994141 C 21.379197 21.589536 23.889797 18.614109 25.505859 16.998047 C 26.505279 15.998627 27.703372 15.198929 28.802734 14.699219 C 32.399647 12.899263 36 13.001953 36 13.001953 z M 29.003906 17.998047 C 27.903545 17.998047 27.003906 18.895732 27.003906 19.996094 C 27.003906 21.095456 27.903545 21.996094 29.003906 21.996094 C 30.102269 21.996094 31.001953 21.095456 31.001953 19.996094 C 31.001953 18.895732 30.103268 17.998047 29.003906 17.998047 z M 14.710938 29.990234 C 14.81088 30.190118 14.910777 30.29035 15.011719 30.490234 C 13.512589 32.388133 13.712891 35.287109 13.712891 35.287109 C 13.712891 35.287109 16.609868 35.487411 18.509766 33.988281 C 18.70965 34.089223 18.809882 34.189121 19.009766 34.289062 C 18.809882 34.488946 18.609087 34.788397 18.408203 34.988281 C 16.108538 37.286947 12.013672 36.986328 12.013672 36.986328 C 12.013672 36.986328 11.713053 32.888464 14.011719 30.591797 C 14.211603 30.390913 14.511053 30.192117 14.710938 29.990234 z " />
  <g
     id="g16"
     transform="matrix(.99942 0 0 .99942 12 13)"
     fill="#fff">
    <g
       id="g14" />
  </g>
</svg>
