<?xml version="1.0" encoding="UTF-8" standalone="no"?>
<svg
   xmlns:dc="http://purl.org/dc/elements/1.1/"
   xmlns:cc="http://creativecommons.org/ns#"
   xmlns:rdf="http://www.w3.org/1999/02/22-rdf-syntax-ns#"
   xmlns:svg="http://www.w3.org/2000/svg"
   xmlns="http://www.w3.org/2000/svg"
   id="svg22"
   version="1"
   height="48"
   width="48">
  <metadata
     id="metadata28">
    <rdf:RDF>
      <cc:Work
         rdf:about="">
        <dc:format>image/svg+xml</dc:format>
        <dc:type
           rdf:resource="http://purl.org/dc/dcmitype/StillImage" />
        <dc:title></dc:title>
      </cc:Work>
    </rdf:RDF>
  </metadata>
  <defs
     id="defs26" />
  <g
     style="fill:#cccccc"
     id="g840">
    <path
       style="fill:#cccccc"
       d="M 8 18 L 8 30 L 40 30 L 40 18 L 8 18 z M 14 20 A 4 4 0 0 1 18 24 A 4 4 0 0 1 14 28 A 4 4 0 0 1 10 24 A 4 4 0 0 1 14 20 z M 24 20 A 4 4 0 0 1 28 24 A 4 4 0 0 1 24 28 A 4 4 0 0 1 20 24 A 4 4 0 0 1 24 20 z M 34 20 A 4 4 0 0 1 38 24 A 4 4 0 0 1 34 28 A 4 4 0 0 1 30 24 A 4 4 0 0 1 34 20 z "
       id="rect2" />
    <path
       style="fill:#cccccc"
       d="m24 4c-9.349 0-17.137 6.36-19.35 15h38.7c-2.213-8.64-10.001-15-19.35-15zm-19.35 25c2.2124 8.64 10.001 15 19.35 15s17.137-6.36 19.35-15h-38.7z"
       id="path4"
       fill="#e4e4e4" />
  </g>
</svg>
