<?xml version="1.0" encoding="UTF-8" standalone="no"?>
<svg
   xmlns:dc="http://purl.org/dc/elements/1.1/"
   xmlns:cc="http://creativecommons.org/ns#"
   xmlns:rdf="http://www.w3.org/1999/02/22-rdf-syntax-ns#"
   xmlns:svg="http://www.w3.org/2000/svg"
   xmlns="http://www.w3.org/2000/svg"
   xmlns:sodipodi="http://sodipodi.sourceforge.net/DTD/sodipodi-0.dtd"
   xmlns:inkscape="http://www.inkscape.org/namespaces/inkscape"
   viewBox="0 0 640 512"
   version="1.1"
   id="svg4"
   sodipodi:docname="modern-symbolic.svg"
   inkscape:version="0.92.3 (2405546, 2018-03-11)">
  <metadata
     id="metadata10">
    <rdf:RDF>
      <cc:Work
         rdf:about="">
        <dc:format>image/svg+xml</dc:format>
        <dc:type
           rdf:resource="http://purl.org/dc/dcmitype/StillImage" />
      </cc:Work>
    </rdf:RDF>
  </metadata>
  <defs
     id="defs8" />
  <sodipodi:namedview
     pagecolor="#ffffff"
     bordercolor="#666666"
     borderopacity="1"
     objecttolerance="10"
     gridtolerance="10"
     guidetolerance="10"
     inkscape:pageopacity="0"
     inkscape:pageshadow="2"
     inkscape:window-width="3840"
     inkscape:window-height="2055"
     id="namedview6"
     showgrid="false"
     inkscape:zoom="1.3037281"
     inkscape:cx="-700.32906"
     inkscape:cy="258.30109"
     inkscape:window-x="0"
     inkscape:window-y="44"
     inkscape:window-maximized="1"
     inkscape:current-layer="svg4" />
  <path
     style="stroke-width:1.26461184;fill:#cccccc"
     d="M 32 -0.64648438 C 14.33 -0.64648438 0 22.270673 0 50.529297 L 0 459.93555 C 0 488.19418 14.33 511.11133 32 511.11133 L 608 511.11133 C 625.67 511.11133 640 488.19418 640 459.93555 L 640 50.529297 C 640 22.270673 625.67 -0.64648437 608 -0.64648438 L 32 -0.64648438 z M 80 101.70508 L 288 101.70508 C 296.84 101.70508 304 113.15567 304 127.29297 L 304 204.05664 C 304 218.19395 296.84 229.64453 288 229.64453 L 80 229.64453 C 71.16 229.64453 64 218.19395 64 204.05664 L 64 127.29297 C 64 113.15567 71.16 101.70508 80 101.70508 z M 467.64453 104.55078 C 480.47355 104.55078 489.52022 109.14109 496.8125 119.4043 L 496.8125 106.30664 L 506.80664 106.30664 L 506.80664 180.17383 L 496.8125 180.17383 L 496.8125 167.21094 C 488.98005 177.74423 480.87729 181.92969 468.31836 181.92969 C 445.63126 181.92969 428.75195 165.45525 428.75195 143.44336 C 428.75195 121.29643 445.4976 104.55078 467.64453 104.55078 z M 467.91406 113.73242 C 451.84403 113.73242 438.87891 126.69755 438.87891 142.76758 C 438.87891 159.64786 451.70789 172.74609 468.45312 172.74609 C 484.38811 172.74609 496.8125 159.64758 496.8125 142.90234 C 496.8125 126.42719 484.11913 113.73242 467.91406 113.73242 z M 80 268.02734 L 96 268.02734 C 100.42 268.02734 104 273.75166 104 280.82031 L 104 306.4082 C 104 313.47687 100.42 319.20312 96 319.20312 L 80 319.20312 C 75.58 319.20312 72 313.47687 72 306.4082 L 72 280.82031 C 72 273.75166 75.58 268.02734 80 268.02734 z M 144 268.02734 L 160 268.02734 C 164.42 268.02734 168 273.75166 168 280.82031 L 168 306.4082 C 168 313.47687 164.42 319.20312 160 319.20312 L 144 319.20312 C 139.58 319.20312 136 313.47687 136 306.4082 L 136 280.82031 C 136 273.75166 139.58 268.02734 144 268.02734 z M 208 268.02734 L 224 268.02734 C 228.42 268.02734 232 273.75166 232 280.82031 L 232 306.4082 C 232 313.47687 228.42 319.20312 224 319.20312 L 208 319.20312 C 203.58 319.20312 200 313.47687 200 306.4082 L 200 280.82031 C 200 273.75166 203.58 268.02734 208 268.02734 z M 272 268.02734 L 288 268.02734 C 292.42 268.02734 296 273.75166 296 280.82031 L 296 306.4082 C 296 313.47687 292.42 319.20312 288 319.20312 L 272 319.20312 C 267.58 319.20312 264 313.47687 264 306.4082 L 264 280.82031 C 264 273.75166 267.58 268.02734 272 268.02734 z M 72 383.17188 L 296 383.17188 C 300.42 383.17188 304 388.89815 304 395.9668 L 304 408.75977 C 304 415.82843 300.42 421.55469 296 421.55469 L 72 421.55469 C 67.58 421.55469 64 415.82843 64 408.75977 L 64 395.9668 C 64 388.89815 67.58 383.17187 72 383.17188 z M 344 383.17188 L 568 383.17188 C 572.42 383.17188 576 388.89815 576 395.9668 L 576 408.75977 C 576 415.82843 572.42 421.55469 568 421.55469 L 344 421.55469 C 339.58 421.55469 336 415.82843 336 408.75977 L 336 395.9668 C 336 388.89815 339.58 383.17187 344 383.17188 z "
     id="path2" />
</svg>
